<svg width="32" height="28" viewBox="0 0 32 28" fill="none" xmlns="http://www.w3.org/2000/svg">
    <path d="M31.063 6.707H8.759L7.89 3.12C7.577 1.834 6.454.935 5.162.935H.938A.95.95 0 0 0 0 1.897c0 .53.42.962.938.962H5.16c.431 0 .805.3.91.727l3.266 13.472-.723.742a3.708 3.708 0 0 0-1.052 2.605c0 2.032 1.602 3.746 3.59 3.746h.322a2.943 2.943 0 0 0-.162.963c0 1.591 1.262 2.886 2.813 2.886 1.55 0 2.813-1.295 2.813-2.886 0-.337-.058-.66-.162-.963H24.6a2.95 2.95 0 0 0-.162.963C24.438 26.705 25.7 28 27.25 28c1.55 0 2.813-1.295 2.813-2.886 0-1.591-1.262-2.886-2.813-2.886H11.152c-.93 0-1.714-.835-1.714-1.823 0-.47.178-.912.502-1.244l.823-.846H27.25c2.581 0 4.75-2.204 4.75-4.874V7.67a.95.95 0 0 0-.938-.962zm-16 18.407c0 .53-.421.962-.938.962a.951.951 0 0 1-.938-.962c0-.53.421-.962.938-.962.517 0 .938.431.938.962zm12.187.962a.951.951 0 0 1-.938-.962c0-.53.421-.962.938-.962.517 0 .938.431.938.962 0 .53-.421.962-.938.962zm2.875-12.635c0 1.6-1.317 2.95-2.875 2.95H11.108l-1.882-7.76h20.899v4.81z" fill="#000"/>
    <path d="M17.875 14.403a.95.95 0 0 0 .938-.962v-1.924a.95.95 0 0 0-.938-.962.95.95 0 0 0-.938.962v1.924c0 .531.42.962.938.962zM14.125 14.403a.95.95 0 0 0 .938-.962v-1.924a.95.95 0 0 0-.938-.962.95.95 0 0 0-.938.962v1.924c0 .531.42.962.938.962zM21.625 14.403a.95.95 0 0 0 .938-.962v-1.924a.95.95 0 0 0-.938-.962.95.95 0 0 0-.938.962v1.924c0 .531.42.962.938.962zM25.375 14.403a.95.95 0 0 0 .938-.962v-1.924a.95.95 0 0 0-.938-.962.95.95 0 0 0-.938.962v1.924c0 .531.42.962.938.962z" fill="#000"/>
</svg>
