<svg width="48" height="48" viewBox="0 0 48 48" fill="none" xmlns="http://www.w3.org/2000/svg">
    <g clip-path="url(#a)" fill="#000">
        <path d="M0 32.72c0 1.143 1.294 1.808 2.223 1.146l7.732-5.516a3.783 3.783 0 0 1 2.209-.707h17.004a5.435 5.435 0 0 0 5.428-5.428V4.37c0-.776-.63-1.406-1.406-1.406H5.428A5.434 5.434 0 0 0 0 8.393v24.328zM2.813 8.394a2.619 2.619 0 0 1 2.615-2.616h26.356v16.438a2.619 2.619 0 0 1-2.616 2.616H12.164a6.58 6.58 0 0 0-3.843 1.23l-5.508 3.93V8.392z"/>
        <path d="M48 19.3a5.435 5.435 0 0 0-5.427-5.428h-3.757a1.406 1.406 0 0 0 0 2.812h3.757a2.619 2.619 0 0 1 2.615 2.617v21.597l-5.508-3.93a6.579 6.579 0 0 0-3.842-1.23H18.832a2.62 2.62 0 0 1-2.615-2.617v-1.26a1.406 1.406 0 0 0-2.813 0v1.26a5.435 5.435 0 0 0 5.428 5.43h17.006c.796 0 1.56.244 2.209.706l7.731 5.516c.924.659 2.223.001 2.223-1.145V19.301zM10.111 13.438H26.36a1.406 1.406 0 0 0 0-2.812H10.11a1.406 1.406 0 0 0 0 2.812zM10.111 20H26.36a1.406 1.406 0 0 0 0-2.812H10.11a1.406 1.406 0 0 0 0 2.813z"/>
    </g>
    <defs>
        <clipPath id="a">
            <path fill="#fff" d="M0 0h48v48H0z"/>
        </clipPath>
    </defs>
</svg>
