<svg width="29" height="29" viewBox="0 0 29 29" fill="none" xmlns="http://www.w3.org/2000/svg">
    <path d="M14.5 0C7.473 0 1.756 5.717 1.756 12.744v6.91a2.552 2.552 0 0 0 2.549 2.55H5.3c.351.988 1.296 1.698 2.403 1.698a2.552 2.552 0 0 0 2.549-2.549v-6.91a2.552 2.552 0 0 0-2.549-2.548c-1.107 0-2.052.71-2.403 1.699h-.995c-.298 0-.584.052-.85.146v-.996C3.455 6.654 8.41 1.7 14.5 1.7s11.045 4.955 11.045 11.045v.996a2.537 2.537 0 0 0-.85-.146H23.7a2.553 2.553 0 0 0-2.403-1.7 2.552 2.552 0 0 0-2.549 2.55v6.91a2.552 2.552 0 0 0 3.289 2.439 2.553 2.553 0 0 1-2.44 1.809h-2.694a2.553 2.553 0 0 0-2.403-1.7 2.552 2.552 0 0 0-2.549 2.55A2.552 2.552 0 0 0 14.5 29c1.108 0 2.052-.71 2.403-1.7h2.695a4.253 4.253 0 0 0 4.248-4.247v-.85h.85a2.552 2.552 0 0 0 2.548-2.549v-6.91C27.244 5.717 21.527 0 14.5 0zM6.854 14.443a.85.85 0 0 1 1.699 0v6.91a.85.85 0 0 1-1.7 0v-6.91zm-2.55.85h.85v5.21h-.85a.85.85 0 0 1-.849-.849v-3.511a.85.85 0 0 1 .85-.85zM14.5 27.301a.85.85 0 0 1 0-1.7.85.85 0 0 1 0 1.7zm7.646-5.947a.85.85 0 0 1-1.699 0v-6.91a.85.85 0 0 1 1.7 0v6.91zm3.399-1.7a.85.85 0 0 1-.85.85h-.85v-5.211h.85a.85.85 0 0 1 .85.85v3.511z" fill="#000"/>
</svg>
