<svg width="28" height="26" viewBox="0 0 28 26" fill="none" xmlns="http://www.w3.org/2000/svg">
    <path d="M14 25.442c-.399 0-.783-.144-1.082-.407a323.7 323.7 0 0 0-3.184-2.738l-.005-.004c-2.821-2.404-5.257-4.48-6.952-6.525C.882 13.482 0 11.314 0 8.946c0-2.3.789-4.423 2.221-5.977C3.671 1.397 5.66.531 7.822.531c1.616 0 3.096.511 4.4 1.519A9.002 9.002 0 0 1 14 3.907a9.003 9.003 0 0 1 1.779-1.857C17.082 1.042 18.562.53 20.179.53c2.161 0 4.15.866 5.6 2.438 1.432 1.554 2.22 3.676 2.22 5.977 0 2.368-.881 4.536-2.776 6.822-1.695 2.045-4.13 4.12-6.951 6.524-.964.822-2.056 1.752-3.19 2.744-.3.262-.684.406-1.082.406zM7.822 2.172c-1.699 0-3.26.677-4.395 1.909C2.275 5.33 1.64 7.059 1.64 8.946c0 1.992.74 3.773 2.4 5.775 1.604 1.936 3.99 3.97 6.752 6.324l.006.004c.965.823 2.06 1.756 3.2 2.752a382.985 382.985 0 0 1 3.21-2.757c2.763-2.354 5.148-4.387 6.752-6.323 1.66-2.002 2.4-3.783 2.4-5.775 0-1.887-.635-3.615-1.787-4.865-1.135-1.232-2.696-1.91-4.395-1.91-1.244 0-2.387.396-3.396 1.176-.9.696-1.525 1.575-1.893 2.19a1.027 1.027 0 0 1-.889.506c-.368 0-.7-.19-.89-.506-.366-.615-.993-1.494-1.892-2.19-1.009-.78-2.152-1.176-3.396-1.176z" fill="#000"/>
</svg>
