<svg width="26" height="26" viewBox="0 0 26 26" fill="none" xmlns="http://www.w3.org/2000/svg">
    <path d="M18.255 0H7.745C3.476 0 0 3.475 0 7.746v10.508C0 22.526 3.475 26 7.746 26h10.508C22.526 26 26 22.525 26 18.255V7.745C26 3.476 22.525 0 18.255 0zm5.13 18.255a5.13 5.13 0 0 1-5.13 5.13H7.745a5.13 5.13 0 0 1-5.13-5.13V7.745a5.13 5.13 0 0 1 5.13-5.13h10.51a5.13 5.13 0 0 1 5.13 5.13v10.51z" fill="url(#a)"/>
    <path d="M13 6.275A6.732 6.732 0 0 0 6.275 13 6.732 6.732 0 0 0 13 19.724 6.732 6.732 0 0 0 19.724 13 6.732 6.732 0 0 0 13 6.275zm0 10.834a4.109 4.109 0 1 1 0-8.218 4.109 4.109 0 0 1 0 8.218z" fill="url(#b)"/>
    <path d="M19.738 7.937a1.611 1.611 0 1 0 0-3.222 1.611 1.611 0 0 0 0 3.222z" fill="url(#c)"/>
    <defs>
        <linearGradient id="a" x1="13" y1="25.924" x2="13" y2=".202" gradientUnits="userSpaceOnUse">
            <stop stop-color="#E09B3D"/>
            <stop offset=".3" stop-color="#C74C4D"/>
            <stop offset=".6" stop-color="#C21975"/>
            <stop offset="1" stop-color="#7024C4"/>
        </linearGradient>
        <linearGradient id="b" x1="13" y1="25.924" x2="13" y2=".202" gradientUnits="userSpaceOnUse">
            <stop stop-color="#E09B3D"/>
            <stop offset=".3" stop-color="#C74C4D"/>
            <stop offset=".6" stop-color="#C21975"/>
            <stop offset="1" stop-color="#7024C4"/>
        </linearGradient>
        <linearGradient id="c" x1="19.738" y1="25.924" x2="19.738" y2=".202" gradientUnits="userSpaceOnUse">
            <stop stop-color="#E09B3D"/>
            <stop offset=".3" stop-color="#C74C4D"/>
            <stop offset=".6" stop-color="#C21975"/>
            <stop offset="1" stop-color="#7024C4"/>
        </linearGradient>
    </defs>
</svg>
