<svg width="41" height="41" viewBox="0 0 41 41" fill="none" xmlns="http://www.w3.org/2000/svg">
    <path d="M32.763 5.079A17.227 17.227 0 0 0 20.5 0 17.227 17.227 0 0 0 8.24 5.079 17.228 17.228 0 0 0 3.16 17.341c0 9.37 8.86 17.164 13.62 21.35a81.626 81.626 0 0 1 1.687 1.51c.57.533 1.302.799 2.034.799.732 0 1.463-.266 2.034-.799.455-.425 1.026-.928 1.688-1.51 4.76-4.187 13.619-11.98 13.619-21.35 0-4.632-1.804-8.987-5.08-12.262zm-10.127 31.81a83.116 83.116 0 0 0-1.74 1.557.58.58 0 0 1-.79 0c-.48-.45-1.064-.963-1.74-1.558C13.89 32.952 5.562 25.625 5.562 17.341c0-8.238 6.701-14.94 14.939-14.94 8.237 0 14.94 6.702 14.94 14.94 0 8.284-8.33 15.611-12.805 19.547z" fill="#000"/>
    <path d="M20.5 9.044c-4.214 0-7.643 3.428-7.643 7.642s3.429 7.642 7.642 7.642c4.214 0 7.642-3.428 7.642-7.642S24.713 9.044 20.5 9.044zm0 12.882c-2.89 0-5.24-2.35-5.24-5.24s2.35-5.24 5.24-5.24c2.889 0 5.24 2.35 5.24 5.24s-2.351 5.24-5.24 5.24z" fill="#000"/>
</svg>
