<svg width="151" height="27" viewBox="0 0 151 27" fill="none" xmlns="http://www.w3.org/2000/svg">
    <path fill-rule="evenodd" clip-rule="evenodd" d="M11.143 13.005H.015c-.008.203-.016.405-.016.612C0 20.279 4.8 25.82 11.143 27V13.005zM26.277 8.403A13.656 13.656 0 0 0 13.662 0 13.662 13.662 0 0 0 1.039 8.403h25.238zM16.17 13.005V27c6.342-1.176 11.15-6.717 11.15-13.383 0-.207-.008-.409-.015-.612H16.17z" fill="#fff"/>
    <path fill-rule="evenodd" clip-rule="evenodd" d="M142.734 14.544c-4.008-2.095-11.256-.729-11.256-2.905 0-.95.672-1.593 1.429-1.908 2.488-1.04 6.382-.366 8.756.49.692.25 1.438.72 1.438.72l1.503-2.293c-.933-.619-2.343-1.215-3.628-1.53-2.015-.495-4.042-.763-6.116-.533-2.23.249-5.093 1.016-6.257 3.146a3.92 3.92 0 0 0-.468 1.787c0 3.216 2.937 3.847 5.639 4.143.418.043.531.09 1.051.101l3.288.273c2.246.37 3.156.483 3.156 2.134 0 1.83-3.847 2.18-5.413 2.18-1.375 0-2.711-.323-3.703-.673-1.355-.471-2.847-1.608-2.847-1.608l-1.945 2.2c.664.72 1.652 1.23 2.539 1.65.379.18.703.265 1.101.398 1.887.627 3.902.837 5.886.728a13.226 13.226 0 0 0 2.472-.355c5.648-1.405 6.448-6.541 3.375-8.145zM37.635 9.75h6.678v12.73h2.883V9.75h6.682V7.114H37.635V9.75z" fill="#3A3A3A"/>
    <path d="M67.029 7.114h-2.882V22.48h2.882V7.114z" fill="#3A3A3A"/>
    <path fill-rule="evenodd" clip-rule="evenodd" d="m105.318 22.48 1.82-3.556h9.686l1.819 3.555h3.043l-7.858-15.365h-3.695l-7.858 15.365h3.043zm6.663-13.03 3.675 7.189h-7.35l3.675-7.189zM92.929 16.245c.687-.226 1.164-.452 1.683-.84 3.004-2.244 2.242-8.29-3.487-8.29H78.568v15.364h2.766v-5.848h5.873l.274-.004 4.8 5.852h3.913l-4.827-5.907c.558-.07 1.097-.171 1.562-.327zm-11.6-6.608h9.448c.933 0 1.937.37 2.343 1.266.23.51.246 1.11.055 1.631-.336.904-1.215 1.313-2.117 1.422a5.875 5.875 0 0 1-.742.039H81.33V9.637z" fill="#3A3A3A"/>
    <path d="M149.871 8.068a.636.636 0 0 0-.629-.642h-.937a.035.035 0 0 0-.035.035v1.931c0 .02.015.035.035.035h.289a.035.035 0 0 0 .035-.035v-.685h.351l.422.685c.012.027.039.035.059.035h.339c.032 0 .036-.016.02-.047l-.43-.693a.632.632 0 0 0 .481-.619zm-.723.323h-.527v-.65h.539c.141 0 .344.117.344.327 0 .203-.192.323-.356.323z" fill="#3A3A3A"/>
    <path d="M149.066 6.503a1.932 1.932 0 0 0-1.933 1.927c0 1.063.871 1.928 1.933 1.928a1.93 1.93 0 0 0 1.933-1.928 1.932 1.932 0 0 0-1.933-1.927zm0 3.535c-.89 0-1.613-.72-1.613-1.608 0-.888.723-1.608 1.613-1.608.891 0 1.617.72 1.617 1.608 0 .888-.726 1.608-1.617 1.608z" fill="#3A3A3A"/>
</svg>
