<svg width="41" height="41" viewBox="0 0 41 41" fill="none" xmlns="http://www.w3.org/2000/svg">
    <g clip-path="url(#a)" fill="#000">
        <path d="m1.055 16.545 6.152-6.152V8.49a3.608 3.608 0 0 1 3.603-3.604h1.912l3.005-2.948c2.588-2.582 6.798-2.582 9.385 0l3.006 2.948h1.911a3.608 3.608 0 0 1 3.604 3.604v1.896l6.301 6.15.01.01A3.58 3.58 0 0 1 41 19.093v18.304A3.61 3.61 0 0 1 37.397 41H3.604A3.61 3.61 0 0 1 0 37.397V19.093a3.58 3.58 0 0 1 1.055-2.548zm6.152-2.754L2.9 18.098l4.307 4.307v-8.614zm16.22-10.143a4.245 4.245 0 0 0-6.013 0l-1.261 1.237h8.534l-1.26-1.237zm7.803 4.84c0-.662-.538-1.2-1.2-1.2H10.81c-.662 0-1.2.538-1.2 1.2v16.32l2.416 2.416 4.147-4.168a5.967 5.967 0 0 1 4.247-1.759c1.604 0 3.112.625 4.244 1.757l4.178 4.154 2.389-2.353V8.49zm2.403 5.254v8.747l4.46-4.395-4.46-4.352zm4.965 23.165V20.97l-8.052 7.932 8.052 8.005zm-1.707 1.69a629311.49 629311.49 0 0 0-13.923-13.842A3.58 3.58 0 0 0 20.42 23.7c-.963 0-1.868.374-2.546 1.053L4.094 38.598h32.797zM2.402 36.894l7.929-7.967-2.772-2.771-5.157-5.157v15.895z"/>
        <path d="M22.822 12.092h4.805a1.201 1.201 0 0 1 0 2.402h-4.805a1.201 1.201 0 1 1 0-2.402zM13.213 16.896h14.414a1.201 1.201 0 0 1 0 2.403H13.213a1.201 1.201 0 1 1 0-2.402z"/>
    </g>
    <defs>
        <clipPath id="a">
            <path fill="#fff" transform="matrix(-1 0 0 1 41 0)" d="M0 0h41v41H0z"/>
        </clipPath>
    </defs>
</svg>
