<svg width="42" height="42" viewBox="0 0 42 42" fill="none" xmlns="http://www.w3.org/2000/svg">
    <path d="M23.46 12.387a1.23 1.23 0 1 0 0-2.461 1.23 1.23 0 0 0 0 2.46zM28.383 12.387a1.23 1.23 0 1 0 0-2.461 1.23 1.23 0 0 0 0 2.46zM33.305 12.387a1.23 1.23 0 1 0 0-2.461 1.23 1.23 0 0 0 0 2.46zM27.662 39.457c2.026 0 3.674-1.656 3.674-3.691v-4.922c0-.53-.339-1-.84-1.167l-7.366-2.461a1.23 1.23 0 0 0-1.072.143l-3.133 2.088c-3.361-1.595-7.334-5.533-8.914-8.834l2.087-3.132a1.23 1.23 0 0 0 .143-1.072l-2.46-7.365a1.23 1.23 0 0 0-1.168-.84H3.691C1.656 8.203 0 9.85 0 11.876c0 6.799 3.091 13.776 8.481 19.143 5.384 5.362 12.375 8.437 19.181 8.437zM3.692 10.664h4.035l1.99 5.954-2.127 3.19a1.23 1.23 0 0 0-.12 1.14c.82 2.045 2.457 4.346 4.612 6.478 2.14 2.118 4.453 3.737 6.51 4.56.376.15.802.106 1.14-.119l3.19-2.126 5.953 1.989v4.036c0 .69-.533 1.23-1.213 1.23-12.954 0-25.201-12.207-25.201-25.119 0-.68.54-1.213 1.23-1.213z" fill="#000"/>
    <path d="M22.99 24.598c.46.19.99.085 1.341-.267l4.561-4.561h4.413c4.794 0 8.695-3.864 8.695-8.614 0-4.75-3.9-8.613-8.695-8.613H23.46c-4.75 0-8.613 3.864-8.613 8.613 0 4.332 3.214 7.927 7.382 8.526v3.779c0 .498.3.946.76 1.137zM17.31 11.156a6.16 6.16 0 0 1 6.152-6.152h9.844c3.437 0 6.234 2.76 6.234 6.152 0 3.393-2.797 6.153-6.234 6.153h-4.922c-.327 0-.64.13-.87.36L24.69 20.49v-1.95c0-.68-.55-1.231-1.23-1.231a6.16 6.16 0 0 1-6.152-6.153z" fill="#000"/>
</svg>
