<svg width="41" height="41" viewBox="0 0 41 41" fill="none" xmlns="http://www.w3.org/2000/svg">
    <path d="M20.51 11.491h8.007c.563 2.901 3.12 5.099 6.183 5.099 3.474 0 6.3-2.826 6.3-6.3 0-3.474-2.826-6.3-6.3-6.3-3.062 0-5.62 2.198-6.183 5.099h-8.008C19.913 3.979 15.557 0 10.29 0 4.616 0 0 4.616 0 10.29c0 5.692 4.598 10.29 10.29 10.29 2.32 0 4.567-.778 6.381-2.21l5.967 5.966a10.24 10.24 0 0 0-2.147 5.173h-8.008c-.563-2.9-3.12-5.098-6.183-5.098A6.307 6.307 0 0 0 0 30.71c0 3.474 2.826 6.3 6.3 6.3 3.062 0 5.62-2.198 6.183-5.099h8.007A10.276 10.276 0 0 0 30.71 41C36.402 41 41 36.402 41 30.71c0-5.674-4.616-10.29-10.29-10.29-2.405 0-4.62.83-6.374 2.217L18.37 16.67a10.27 10.27 0 0 0 2.14-5.179zM34.7 6.393a3.902 3.902 0 0 1 3.898 3.897 3.902 3.902 0 0 1-3.898 3.897 3.902 3.902 0 0 1-3.897-3.897A3.902 3.902 0 0 1 34.7 6.393zM2.402 10.29c0-4.35 3.539-7.888 7.888-7.888 4.35 0 7.888 3.539 7.888 7.888a7.88 7.88 0 0 1-1.907 5.148 6.218 6.218 0 0 0-2.836-3.726 3.966 3.966 0 0 0 .842-2.446 3.992 3.992 0 0 0-3.987-3.988 3.992 3.992 0 0 0-3.987 3.988c0 .921.315 1.77.842 2.446a6.218 6.218 0 0 0-2.836 3.726 7.88 7.88 0 0 1-1.907-5.148zm6.303-1.024c0-.874.71-1.585 1.585-1.585.874 0 1.585.71 1.585 1.585 0 .874-.711 1.585-1.585 1.585a1.587 1.587 0 0 1-1.585-1.585zm-2.207 7.946c0-2.432 1.822-3.959 3.792-3.959 1.95 0 3.791 1.505 3.791 3.959a7.926 7.926 0 0 1-7.582 0zM6.3 34.607a3.902 3.902 0 0 1-3.898-3.897A3.902 3.902 0 0 1 6.3 26.813a3.902 3.902 0 0 1 3.897 3.897A3.902 3.902 0 0 1 6.3 34.607zm20.619 3.025c0-2.432 1.821-3.958 3.79-3.959h.001c1.95 0 3.792 1.505 3.792 3.959a7.926 7.926 0 0 1-7.583 0zm2.206-7.946c0-.874.711-1.585 1.585-1.585s1.585.71 1.585 1.585c0 .874-.71 1.585-1.585 1.585a1.587 1.587 0 0 1-1.585-1.585zm9.473 1.024a7.88 7.88 0 0 1-1.907 5.148 6.219 6.219 0 0 0-2.836-3.726 3.966 3.966 0 0 0 .843-2.446 3.992 3.992 0 0 0-3.988-3.988 3.992 3.992 0 0 0-3.987 3.988c0 .922.315 1.77.842 2.446a6.218 6.218 0 0 0-2.836 3.726 7.88 7.88 0 0 1-1.906-5.148c0-4.35 3.538-7.888 7.887-7.888 4.35 0 7.888 3.539 7.888 7.888z" fill="#000"/>
</svg>
