<svg width="12" height="12" viewBox="0 0 12 12" fill="none" xmlns="http://www.w3.org/2000/svg">
    <path d="M11.793 9.931H.207A.207.207 0 0 1 0 9.724V2.276c0-.114.093-.207.207-.207h11.586c.114 0 .207.093.207.207v7.448a.207.207 0 0 1-.207.207z" fill="#F5F5F5"/>
    <path d="M12 2.674H0v-.398c0-.114.093-.207.207-.207h11.586c.114 0 .207.093.207.207v.398zM12 4.488H0v.605h12v-.605zM12 3.278H0v.605h12v-.605zM12 6.302H.207A.207.207 0 0 1 0 6.096v-.398h12v.604zM12 8.117H0v.605h12v-.605zM11.793 9.931H.207A.207.207 0 0 1 0 9.724v-.398h12v.398a.207.207 0 0 1-.207.207zM12 6.907H0v.605h12v-.605z" fill="#FF4B55"/>
    <path d="M5.38 2.069H.206A.207.207 0 0 0 0 2.276v3.82c0 .114.093.206.207.206h5.172a.207.207 0 0 0 .207-.207v-3.82a.207.207 0 0 0-.207-.206z" fill="#41479B"/>
    <path d="m.58 2.544.047.137.144.001a.02.02 0 0 1 .012.036l-.117.086.044.138a.02.02 0 0 1-.03.021L.562 2.88l-.117.084a.02.02 0 0 1-.03-.021l.043-.138-.116-.086a.02.02 0 0 1 .011-.036h.145l.046-.138a.02.02 0 0 1 .037 0zM.58 3.262l.047.138H.77a.02.02 0 0 1 .012.036l-.117.086.044.138a.02.02 0 0 1-.03.022l-.118-.084-.117.084a.02.02 0 0 1-.03-.022l.043-.138-.116-.086a.02.02 0 0 1 .011-.035L.498 3.4l.046-.138a.02.02 0 0 1 .037 0zM.58 3.98l.047.138.144.001a.02.02 0 0 1 .012.035l-.117.086.044.138a.02.02 0 0 1-.03.022l-.118-.084-.117.084a.02.02 0 0 1-.03-.022l.043-.138-.116-.086a.02.02 0 0 1 .011-.035h.145l.046-.138a.02.02 0 0 1 .037 0zM.58 4.7l.047.137H.77a.02.02 0 0 1 .012.036l-.117.086.044.138a.02.02 0 0 1-.03.022l-.118-.084-.117.084a.02.02 0 0 1-.03-.022l.043-.138-.116-.086a.02.02 0 0 1 .011-.035l.145-.001.046-.138a.02.02 0 0 1 .037 0zM.58 5.418l.047.137.144.001a.02.02 0 0 1 .012.035l-.117.086.044.138a.02.02 0 0 1-.03.022l-.118-.084-.117.084a.02.02 0 0 1-.03-.022l.043-.138-.116-.086a.02.02 0 0 1 .011-.035h.145l.046-.138a.02.02 0 0 1 .037 0zM1.14 2.896l.045.137.145.002a.02.02 0 0 1 .012.035l-.117.086.044.138a.02.02 0 0 1-.03.022L1.12 3.23l-.118.085a.02.02 0 0 1-.03-.022l.044-.138-.116-.086a.02.02 0 0 1 .011-.035l.145-.002.046-.137a.02.02 0 0 1 .037 0zM1.14 3.615l.045.137.145.001a.02.02 0 0 1 .012.035l-.117.086.044.138a.02.02 0 0 1-.03.022L1.12 3.95l-.118.084a.02.02 0 0 1-.03-.022l.044-.138-.116-.086a.02.02 0 0 1 .011-.035l.145-.001.046-.137a.02.02 0 0 1 .037 0zM1.14 4.333l.045.137.145.001a.02.02 0 0 1 .012.036l-.117.086.044.138a.02.02 0 0 1-.03.021l-.118-.084-.118.084a.02.02 0 0 1-.03-.021l.044-.138-.116-.086a.02.02 0 0 1 .011-.036h.145l.046-.138a.02.02 0 0 1 .037 0zM1.14 5.051l.045.138h.145a.02.02 0 0 1 .012.036l-.117.086.044.138a.02.02 0 0 1-.03.022l-.118-.084-.118.084a.02.02 0 0 1-.03-.022l.044-.138-.116-.086a.02.02 0 0 1 .011-.035l.145-.001.046-.138a.02.02 0 0 1 .037 0zM1.696 2.544l.046.137.145.001a.02.02 0 0 1 .011.036l-.116.086.043.138a.02.02 0 0 1-.03.021l-.117-.084-.118.084a.02.02 0 0 1-.03-.021l.044-.138-.117-.086a.02.02 0 0 1 .012-.036h.144l.046-.138a.02.02 0 0 1 .037 0zM1.696 3.262l.046.138h.145a.02.02 0 0 1 .011.036l-.116.086.043.138a.02.02 0 0 1-.03.022l-.117-.084-.118.084a.02.02 0 0 1-.03-.022l.044-.138-.117-.086A.02.02 0 0 1 1.47 3.4l.144-.001.046-.138a.02.02 0 0 1 .037 0zM1.696 3.98l.046.138.145.001a.02.02 0 0 1 .011.035l-.116.086.043.138a.02.02 0 0 1-.03.022l-.117-.084-.118.084a.02.02 0 0 1-.03-.022l.044-.138-.117-.086a.02.02 0 0 1 .012-.035h.144l.046-.138a.02.02 0 0 1 .037 0zM1.696 4.7l.046.137h.145a.02.02 0 0 1 .011.036l-.116.086.043.138a.02.02 0 0 1-.03.022l-.117-.084-.118.084a.02.02 0 0 1-.03-.022l.044-.138-.117-.086a.02.02 0 0 1 .012-.035l.144-.001.046-.138a.02.02 0 0 1 .037 0zM1.696 5.418l.046.137.145.001a.02.02 0 0 1 .011.035l-.116.086.043.138a.02.02 0 0 1-.03.022l-.117-.084-.118.084a.02.02 0 0 1-.03-.022l.044-.138-.117-.086a.02.02 0 0 1 .012-.035h.144l.046-.138a.02.02 0 0 1 .037 0zM2.255 2.896l.046.137.144.002a.02.02 0 0 1 .012.035l-.117.086.044.138a.02.02 0 0 1-.03.022l-.118-.085-.118.085a.02.02 0 0 1-.03-.022l.044-.138-.116-.086a.02.02 0 0 1 .011-.035l.145-.002.046-.137a.02.02 0 0 1 .037 0zM2.255 3.615l.046.137.144.001a.02.02 0 0 1 .012.035l-.117.086.044.138a.02.02 0 0 1-.03.022l-.118-.084-.118.084a.02.02 0 0 1-.03-.022l.044-.138-.116-.086a.02.02 0 0 1 .011-.035l.145-.001.046-.137a.02.02 0 0 1 .037 0zM2.255 4.333l.046.137.144.001a.02.02 0 0 1 .012.036l-.117.086.044.138a.02.02 0 0 1-.03.021l-.118-.084-.118.084a.02.02 0 0 1-.03-.021l.044-.138-.116-.086a.02.02 0 0 1 .011-.036h.145l.046-.138a.02.02 0 0 1 .037 0zM2.255 5.051l.046.138h.144a.02.02 0 0 1 .012.036l-.117.086.044.138a.02.02 0 0 1-.03.022l-.118-.084-.118.084a.02.02 0 0 1-.03-.022l.044-.138-.116-.086a.02.02 0 0 1 .011-.035l.145-.001.046-.138a.02.02 0 0 1 .037 0zM2.811 2.544l.046.137.145.001a.02.02 0 0 1 .011.036l-.116.086.044.138a.02.02 0 0 1-.03.021l-.118-.084-.118.084a.02.02 0 0 1-.03-.021l.044-.138-.117-.086a.02.02 0 0 1 .012-.036h.145l.045-.138a.02.02 0 0 1 .037 0zM2.811 3.262l.046.138h.145a.02.02 0 0 1 .011.036l-.116.086.044.138a.02.02 0 0 1-.03.022l-.118-.084-.118.084a.02.02 0 0 1-.03-.022l.044-.138-.117-.086a.02.02 0 0 1 .012-.035l.145-.001.045-.138a.02.02 0 0 1 .037 0zM2.811 3.98l.046.138.145.001a.02.02 0 0 1 .011.035l-.116.086.044.138a.02.02 0 0 1-.03.022l-.118-.084-.118.084a.02.02 0 0 1-.03-.022l.044-.138-.117-.086a.02.02 0 0 1 .012-.035h.145l.045-.138a.02.02 0 0 1 .037 0zM2.811 4.7l.046.137h.145a.02.02 0 0 1 .011.036l-.116.086.044.138a.02.02 0 0 1-.03.022l-.118-.084-.118.084a.02.02 0 0 1-.03-.022l.044-.138-.117-.086a.02.02 0 0 1 .012-.035l.145-.001.045-.138a.02.02 0 0 1 .037 0zM2.811 5.418l.046.137.145.001a.02.02 0 0 1 .011.035l-.116.086.044.138a.02.02 0 0 1-.03.022l-.118-.084-.118.084a.02.02 0 0 1-.03-.022l.044-.138-.117-.086a.02.02 0 0 1 .012-.035h.145l.045-.138a.02.02 0 0 1 .037 0zM3.37 2.896l.046.137.145.002a.02.02 0 0 1 .011.035l-.116.086.043.138a.02.02 0 0 1-.03.022l-.117-.085-.118.085a.02.02 0 0 1-.03-.022l.043-.138-.116-.086a.02.02 0 0 1 .011-.035l.145-.002.046-.137a.02.02 0 0 1 .037 0zM3.37 3.615l.046.137.145.001a.02.02 0 0 1 .011.035l-.116.086.043.138a.02.02 0 0 1-.03.022l-.117-.084-.118.084a.02.02 0 0 1-.03-.022l.043-.138-.116-.086a.02.02 0 0 1 .011-.035l.145-.001.046-.137a.02.02 0 0 1 .037 0zM3.37 4.333l.046.137.145.001a.02.02 0 0 1 .011.036l-.116.086.043.138a.02.02 0 0 1-.03.021l-.117-.084-.118.084a.02.02 0 0 1-.03-.021l.043-.138-.116-.086a.02.02 0 0 1 .011-.036h.145l.046-.138a.02.02 0 0 1 .037 0zM3.37 5.051l.046.138h.145a.02.02 0 0 1 .011.036l-.116.086.043.138a.02.02 0 0 1-.03.022l-.117-.084-.118.084a.02.02 0 0 1-.03-.022l.043-.138-.116-.086a.02.02 0 0 1 .011-.035l.145-.001.046-.138a.02.02 0 0 1 .037 0zM3.927 2.544l.045.137.145.001a.02.02 0 0 1 .012.036l-.117.086.044.138a.02.02 0 0 1-.03.021l-.118-.084-.118.084a.02.02 0 0 1-.03-.021l.044-.138-.116-.086a.02.02 0 0 1 .011-.036h.145l.046-.138a.02.02 0 0 1 .037 0zM3.927 3.262l.045.138h.145a.02.02 0 0 1 .012.036l-.117.086.044.138a.02.02 0 0 1-.03.022l-.118-.084-.118.084a.02.02 0 0 1-.03-.022l.044-.138-.116-.086a.02.02 0 0 1 .011-.035l.145-.001.046-.138a.02.02 0 0 1 .037 0zM3.927 3.98l.045.138.145.001a.02.02 0 0 1 .012.035l-.117.086.044.138a.02.02 0 0 1-.03.022l-.118-.084-.118.084a.02.02 0 0 1-.03-.022l.044-.138-.116-.086a.02.02 0 0 1 .011-.035h.145l.046-.138a.02.02 0 0 1 .037 0zM3.927 4.7l.045.137h.145a.02.02 0 0 1 .012.036l-.117.086.044.138a.02.02 0 0 1-.03.022l-.118-.084-.118.084a.02.02 0 0 1-.03-.022l.044-.138-.116-.086a.02.02 0 0 1 .011-.035l.145-.001.046-.138a.02.02 0 0 1 .037 0zM3.927 5.418l.045.137.145.001a.02.02 0 0 1 .012.035l-.117.086.044.138a.02.02 0 0 1-.03.022l-.118-.084-.118.084a.02.02 0 0 1-.03-.022l.044-.138-.116-.086a.02.02 0 0 1 .011-.035h.145l.046-.138a.02.02 0 0 1 .037 0zM4.485 2.896l.046.137.145.002a.02.02 0 0 1 .011.035l-.116.086.043.138a.02.02 0 0 1-.03.022l-.117-.085-.118.085a.02.02 0 0 1-.03-.022l.044-.138-.117-.086a.02.02 0 0 1 .012-.035l.144-.002.046-.137a.02.02 0 0 1 .037 0zM4.485 3.615l.046.137.145.001a.02.02 0 0 1 .011.035l-.116.086.043.138a.02.02 0 0 1-.03.022l-.117-.084-.118.084a.02.02 0 0 1-.03-.022l.044-.138-.117-.086a.02.02 0 0 1 .012-.035l.144-.001.046-.137a.02.02 0 0 1 .037 0zM4.485 4.333l.046.137.145.001a.02.02 0 0 1 .011.036l-.116.086.043.138a.02.02 0 0 1-.03.021l-.117-.084-.118.084a.02.02 0 0 1-.03-.021l.044-.138-.117-.086a.02.02 0 0 1 .012-.036h.144l.046-.138a.02.02 0 0 1 .037 0zM4.485 5.051l.046.138h.145a.02.02 0 0 1 .011.036l-.116.086.043.138a.02.02 0 0 1-.03.022l-.117-.084-.118.084a.02.02 0 0 1-.03-.022l.044-.138-.117-.086a.02.02 0 0 1 .012-.035l.144-.001.046-.138a.02.02 0 0 1 .037 0zM5.042 2.544l.046.137.144.001a.02.02 0 0 1 .012.036l-.117.086.044.138a.02.02 0 0 1-.03.021l-.118-.084-.117.084a.02.02 0 0 1-.03-.021l.043-.138-.116-.086a.02.02 0 0 1 .011-.036h.145l.046-.138a.02.02 0 0 1 .037 0zM5.042 3.262l.046.138h.144a.02.02 0 0 1 .012.036l-.117.086.044.138a.02.02 0 0 1-.03.022l-.118-.084-.117.084a.02.02 0 0 1-.03-.022l.043-.138-.116-.086a.02.02 0 0 1 .011-.035L4.96 3.4l.046-.138a.02.02 0 0 1 .037 0zM5.042 3.98l.046.138.144.001a.02.02 0 0 1 .012.035l-.117.086.044.138a.02.02 0 0 1-.03.022l-.118-.084-.117.084a.02.02 0 0 1-.03-.022l.043-.138-.116-.086a.02.02 0 0 1 .011-.035h.145l.046-.138a.02.02 0 0 1 .037 0zM5.042 4.7l.046.137h.144a.02.02 0 0 1 .012.036l-.117.086.044.138a.02.02 0 0 1-.03.022l-.118-.084-.117.084a.02.02 0 0 1-.03-.022l.043-.138-.116-.086a.02.02 0 0 1 .011-.035l.145-.001.046-.138a.02.02 0 0 1 .037 0zM5.042 5.418l.046.137.144.001a.02.02 0 0 1 .012.035l-.117.086.044.138a.02.02 0 0 1-.03.022l-.118-.084-.117.084a.02.02 0 0 1-.03-.022l.043-.138-.116-.086a.02.02 0 0 1 .011-.035h.145l.046-.138a.02.02 0 0 1 .037 0z" fill="#F5F5F5"/>
</svg>
