<svg width="27" height="27" viewBox="0 0 27 27" fill="none" xmlns="http://www.w3.org/2000/svg">
    <path d="M3.954 17.454a13.448 13.448 0 0 1 5.13-3.218 7.802 7.802 0 0 1-3.389-6.431C5.695 3.5 9.197 0 13.5 0s7.805 3.501 7.805 7.805a7.802 7.802 0 0 1-3.39 6.431c1.91.66 3.66 1.748 5.13 3.218A13.412 13.412 0 0 1 27 27h-2.11c0-6.28-5.11-11.39-11.39-11.39S2.11 20.72 2.11 27H0c0-3.606 1.404-6.996 3.954-9.546zM13.5 13.5a5.702 5.702 0 0 0 5.695-5.695A5.702 5.702 0 0 0 13.5 2.109a5.702 5.702 0 0 0-5.695 5.696A5.702 5.702 0 0 0 13.5 13.5z" fill="#000"/>
</svg>
